<svg width="20px" height="20px" viewBox="0 0 20 20" version="1.1" xmlns:xlink="http://www.w3.org/1999/xlink" xmlns="http://www.w3.org/2000/svg">
  <defs>
    <path d="M0 0L20 0L20 20L0 20L0 0Z" id="path_1" />
    <clipPath id="clip_1">
      <use xlink:href="#path_1" />
    </clipPath>
  </defs>
  <g id="basket" clip-path="url(#clip_1)">
    <path d="M0 0L20 0L20 20L0 20L0 0Z" id="basket" fill="none" fill-rule="evenodd" stroke="none" />
    <path d="M13.3793 17.0526C11.9982 17.0526 10.3029 17.0135 8.90571 17.0135C9.2012 17.5603 9.37564 17.9366 9.29014 18.5678C9.20463 19.199 8.72696 19.9355 7.57407 19.8942C6.42117 19.853 6.14647 18.9968 6.0348 18.4878C5.92314 17.9788 6.20098 17.4333 6.44863 16.9544C6.29308 16.9544 5.76476 16.9652 5.47623 16.6542C5.18772 16.3432 6.42118 12.8241 6.35682 12.6226C5.30827 9.34408 4.25969 6.0655 3.21917 2.78402C3.15213 2.5709 3.04753 2.46288 2.85981 2.38405C2.066 2.05415 1.27491 1.71549 0.486469 1.37099C0.0681185 1.18707 -0.0981489 0.801693 0.0573953 0.416332C0.194168 0.0747491 0.534755 -0.0945777 0.896785 0.0543214C1.89708 0.465965 2.89201 0.889286 3.8762 1.34181C4.03711 1.41479 4.18462 1.63083 4.25433 1.81768C4.44473 2.31983 4.5976 2.83951 4.75045 3.35624C4.80408 3.54309 4.88454 3.60148 5.06689 3.59856C7.31419 3.5898 16.7781 3.59272 19.2614 3.59272C19.8192 3.59272 20.1223 4.02187 19.9533 4.59702C19.0817 7.56903 18.2075 10.5381 17.3279 13.5043C17.2018 13.9276 16.998 14.0823 16.5823 14.0823C13.5091 14.0853 7.15596 14.0677 7.01653 14.059C6.83148 14.6195 6.6384 15.1976 6.42923 15.8311C6.58477 15.8311 16.6816 15.834 16.8076 15.8632C17.041 15.9128 17.2045 16.1376 17.2153 16.3916C17.2233 16.6456 17.0758 16.885 16.8479 16.9522C16.7326 16.9872 15.9202 16.9455 15.7593 16.9455C15.9728 17.2421 16.4827 17.7636 16.3307 18.5209C16.1787 19.2783 15.8942 19.9819 14.6764 19.9998C13.4586 20.0176 13.1131 19.0625 12.9979 18.5465C12.8827 18.0305 13.0204 17.4043 13.3793 17.0526L13.3793 17.0526ZM9.35662 6.5192C9.35662 6.02082 9.35662 5.05947 9.35662 5.05947L5.334 5.05947L5.79008 6.39394C5.79008 6.39394 8.21375 6.5192 9.35662 6.5192L9.35662 6.5192L9.35662 6.5192ZM14.8033 6.50803C14.846 6.5191 17.7862 6.41847 17.7862 6.41847L18.2895 5.07989L14.8033 5.07989C14.8033 5.07989 14.8033 6.03475 14.8033 6.50803L14.8033 6.50803L14.8033 6.50803ZM13.3256 8.04316C12.4153 8.04316 10.6439 8.04316 10.6439 8.04316L10.6439 9.79484L13.3256 9.79484C13.3256 9.79484 13.3256 8.62995 13.3256 8.04316L13.3256 8.04316L13.3256 8.04316ZM6.27797 8.03149C6.46026 8.62592 6.81223 10 6.81223 10L9.22789 9.78317L9.22789 8.03149C9.22789 8.03149 7.2883 8.03149 6.27797 8.03149L6.27797 8.03149L6.27797 8.03149ZM14.7979 9.76226C15.2789 9.76226 16.9408 9.71732 16.9408 9.71732L17.4797 8.04024L14.7979 8.04024C14.7979 8.04024 14.7979 9.15548 14.7979 9.76226L14.7979 9.76226L14.7979 9.76226ZM13.3283 5.06822C12.4221 5.06822 10.6466 5.06822 10.6466 5.06822L10.6466 6.52795L13.3283 6.52795C13.3283 6.52795 13.3283 5.56315 13.3283 5.06822L13.3283 5.06822L13.3283 5.06822ZM10.6358 12.7026C11.5453 12.7026 13.3176 12.7026 13.3176 12.7026L13.3176 11.2429C13.3176 11.2429 11.5281 11.2429 10.6358 11.2429C10.6358 11.2429 10.6358 11.2429 10.6358 11.2429C10.6358 11.2429 10.6358 12.2093 10.6358 12.7026L10.6358 12.7026L10.6358 12.7026ZM9.17694 11.2312C8.54084 11.2312 7.29972 11.2312 7.29972 11.2312L7.81627 12.6848L9.17695 12.6905C9.17695 12.6905 9.17694 11.7261 9.17694 11.2312L9.17694 11.2312L9.17694 11.2312ZM14.8033 12.7026C15.0927 12.7026 16.4589 12.4607 16.4589 12.4607L16.6805 11.2429L14.8033 11.2429C14.8033 11.2429 14.8033 12.2028 14.8033 12.7026L14.8033 12.7026L14.8033 12.7026ZM14.6933 19.4686C13.2428 19.4773 13.2284 17.1838 14.6933 17.2001C16.1581 17.2164 16.1437 19.4599 14.6933 19.4686ZM7.69326 19.4C6.24277 19.4087 6.22842 17.1152 7.69326 17.1314C9.15811 17.1477 9.14375 19.3912 7.69326 19.4Z" id="figura" fill="#000000" fill-rule="evenodd" stroke="none" />
  </g>
</svg>