<svg width="40" height="40" viewBox="0 0 40 40" fill="none" xmlns="http://www.w3.org/2000/svg">
	<path
		d="M36.25 31H2.25C1.45 31 0.75 31.7 0.75 32.5C0.75 33.3 1.45 34 2.25 34H36.15C37.05 34 37.65 33.3 37.65 32.5C37.65 31.7 37.05 31 36.25 31ZM36.25 5H15.25C14.45 5 13.75 5.7 13.75 6.5C13.75 7.3 14.45 8 15.25 8H36.25C37.05 8 37.75 7.3 37.75 6.5C37.75 5.7 37.05 5 36.25 5ZM36.25 14H2.25C1.45 14 0.75 14.7 0.75 15.5C0.75 16.3 1.45 17 2.25 17H36.15C37.05 17 37.65 16.3 37.65 15.5C37.65 14.7 37.05 14 36.25 14ZM36.25 23H15.25C14.45 23 13.75 23.7 13.75 24.5C13.75 25.3 14.45 26 15.25 26H36.25C37.05 26 37.75 25.3 37.75 24.5C37.75 23.7 37.05 23 36.25 23Z"
		fill="black" />
</svg>