<svg width="16" height="16" viewBox="0 0 16 16" fill="none" xmlns="http://www.w3.org/2000/svg">
<path d="M8.00252 9.06126C7.95627 9.10626 7.91377 9.14376 7.87502 9.18376C7.15502 9.90626 6.43502 10.63 5.71377 11.3538C5.52502 11.5438 5.41627 11.5438 5.22877 11.355C5.04502 11.1713 4.86127 10.9863 4.67752 10.8013C4.50377 10.625 4.50377 10.5113 4.67502 10.3375C5.40252 9.60626 6.13002 8.87626 6.85877 8.14751C6.89877 8.10751 6.95502 8.08376 7.03752 8.03001C6.93502 7.94876 6.87377 7.90751 6.82252 7.85626C6.11002 7.15501 5.40002 6.45126 4.68877 5.74876C4.48752 5.54876 4.48752 5.44626 4.69127 5.24126C4.87502 5.05626 5.05752 4.87126 5.24252 4.68751C5.40252 4.52876 5.52127 4.52876 5.68252 4.68876C6.41502 5.40751 7.14502 6.12876 7.87502 6.84876C7.91502 6.88876 7.95752 6.92626 8.00502 6.97126C8.05127 6.92751 8.09252 6.89001 8.13252 6.85126C8.85877 6.13501 9.58627 5.41751 10.3125 4.70126C10.4925 4.52376 10.6038 4.52501 10.7863 4.70751C10.9738 4.89501 11.1613 5.08376 11.3488 5.27251C11.5138 5.44001 11.515 5.55876 11.3463 5.72501C10.6175 6.44626 9.88752 7.16751 9.15627 7.88751C9.11502 7.92751 9.06877 7.96126 8.97627 8.03626C9.05002 8.08126 9.10752 8.10376 9.14752 8.14376C9.87252 8.86876 10.5963 9.59626 11.32 10.3238C11.5075 10.5125 11.5075 10.62 11.32 10.8088C11.1325 10.9975 10.9463 11.1863 10.7575 11.3738C10.5975 11.5325 10.4775 11.5325 10.3175 11.3725C9.58752 10.6425 8.85877 9.91251 8.13002 9.18376C8.09002 9.14376 8.04877 9.10501 8.00252 9.06126Z" fill="white"/>
<path d="M8.00873 1.02875C11.8762 1.03375 15.0175 4.18375 15.0037 8.04375C14.9912 11.9075 11.8525 15.0363 7.99498 15.03C4.12623 15.025 0.987476 11.8763 0.999976 8.015C1.01248 4.15 4.14873 1.02375 8.00873 1.02875ZM8.00248 9.06125C8.04873 9.10625 8.09123 9.14375 8.13123 9.18375C8.85998 9.91375 9.58873 10.6438 10.3175 11.3725C10.4775 11.5325 10.5975 11.5325 10.7575 11.3738C10.9462 11.1863 11.1325 10.9975 11.32 10.8088C11.5075 10.62 11.5075 10.5113 11.32 10.3238C10.5962 9.59625 9.87248 8.86875 9.14748 8.14375C9.10748 8.10375 9.05123 8.0825 8.97623 8.03625C9.06873 7.96 9.11623 7.9275 9.15623 7.8875C9.88623 7.1675 10.6162 6.44625 11.3462 5.725C11.515 5.55875 11.515 5.44 11.3487 5.2725C11.1625 5.08375 10.975 4.895 10.7862 4.7075C10.6037 4.525 10.4925 4.52375 10.3125 4.70125C9.58623 5.4175 8.85873 6.135 8.13248 6.85125C8.09248 6.89 8.05123 6.9275 8.00498 6.97125C7.95748 6.92625 7.91623 6.88875 7.87498 6.84875C7.14498 6.12875 6.41498 5.4075 5.68373 4.6875C5.52248 4.52875 5.40248 4.52875 5.24373 4.68625C5.05873 4.87 4.87623 5.055 4.69248 5.24C4.48873 5.445 4.48748 5.5475 4.68998 5.7475C5.40123 6.45 6.11123 7.15375 6.82373 7.855C6.87498 7.90625 6.93623 7.94625 7.03873 8.02875C6.95623 8.0825 6.89998 8.10625 6.85998 8.14625C6.12998 8.87625 5.40248 9.6075 4.67498 10.3375C4.50248 10.51 4.50373 10.625 4.67748 10.8013C4.85998 10.9863 5.04373 11.1713 5.22873 11.355C5.41623 11.5425 5.52498 11.5425 5.71373 11.3538C6.43373 10.6313 7.15373 9.9075 7.87498 9.18375C7.91373 9.14375 7.95498 9.10625 8.00248 9.06125Z" fill="black"/>
</svg>
