<svg width="16" height="16" viewBox="0 0 16 16" fill="none" xmlns="http://www.w3.org/2000/svg">
	<path
		d="M3.56336 14.54C3.5594 14.9697 3.72324 15.0824 4.06015 14.9243C4.42217 14.7541 7.68895 13.2193 8.00101 13.2128C8.31308 13.2063 10.7008 14.3793 11.9626 14.9429C12.2586 15.0755 12.4158 14.9765 12.4079 14.6524C12.4013 14.3646 11.934 10.5027 12.0598 10.1037C12.1856 9.7047 14.5603 7.03537 14.9236 6.58139C15.0781 6.38856 14.987 6.1609 14.7518 6.10599C13.4596 5.80737 10.8653 5.33792 10.5282 5.07001C10.1911 4.80207 8.97128 2.43808 8.29348 1.25428C8.09794 0.912802 7.8852 0.915478 7.68833 1.26097C7.5298 1.54085 5.7839 4.82627 5.47539 5.07001C5.16689 5.31373 2.69662 5.77256 1.37932 6.08591C0.963113 6.18367 0.88648 6.4073 1.16395 6.74745C1.65282 7.34738 3.79023 9.72689 3.9307 10.1C4.07118 10.4732 3.62678 13.8865 3.56336 14.54Z"
		fill="black" />
</svg>